<svg xmlns="http://www.w3.org/2000/svg" viewBox="0 0 24 24"><path d="M18.047 17.3l-.25.57c.107-.177.187-.37.25-.57z"/><path d="M21.956 7.364l-3.778-1.656v1.458l3.242 1.42c.207.09.3.333.21.54L18.047 17.3c-.063.2-.143.393-.25.57l-.198.452c-.064.197-.143.388-.25.566l-.787 1.796c-.078.18-.25.243-.374.243-.017 0-.033 0-.05-.002l-1.254-.55-1.86.64L15.72 22.2c.156.043.314.064.47.064.67 0 1.31-.388 1.596-1.042l5.067-11.558c.386-.882-.015-1.91-.897-2.298z"/><path d="M6.417 3.893c0-.225.183-.41.41-.41h2.228l1.073-.37c.278-.094.567-.143.86-.143.574 0 1.115.19 1.557.514h3c.225 0 .41.184.41.41v8.037l1.333 3.872V3.893c0-.963-.78-1.743-1.743-1.743h-8.72c-.962 0-1.743.78-1.743 1.743v.96l1.335-.46v-.5z"/><path d="M16.75 16.967l-.796-2.307-3.32-9.624c-.248-.723-.924-1.176-1.647-1.176-.19 0-.38.03-.568.095l-4.003 1.38-1.335.46-2.906 1.002c-.91.314-1.394 1.307-1.08 2.217l4.113 11.93c.248.723.924 1.175 1.647 1.175.11 0 .22-.01.33-.033l4.636-1.598 1.86-.642 2.21-.762c.544-.278.887-.815.94-1.4.02-.237-.002-.48-.084-.72zM5.534 9.515c.204-.19.52-.043.767.127.042.03.076.04.115.06.3.16.49.076.658-.31.162-.373.255-.56.4-.602.14-.055.327.034.685.228.416.227.625.155.762-.28.09-.286.247-.597.526-.572.246.02.32.195.4.393.188.46.383 1.037.54 1.567.324 1.104.122 1.885-.673 2.606-.135.122-.296.212-.213.45l.35 1.012c.28-.628.534-1.096.955-1.43 1.18-.932 1.257-.593 1.56.395.383 1.24.15 2.308-.74 3.198-.226.224-.467.398-.715.546-.178.105-.36.203-.548.27-.454.153-.955.2-1.495.135-.395-.05-.734-.17-1.047-.324.003-.028-.006-.055.002-.082H7.69c-.553-.313-.98-.794-1.273-1.455-.032-.072-.075-.127-.104-.202-.268-.702-.41-1.057.104-1.197.193-.052.472-.077.882-.075.536.002 1.025.215 1.63.537L8.586 13.5c-.082-.24-.264-.21-.446-.224-.774-.056-1.318-.337-1.723-.887-.156-.212-.295-.455-.413-.752-.204-.514-.406-1.088-.543-1.567-.057-.204-.106-.386.075-.555zM17.6 18.322l-.25.566c.107-.178.186-.368.25-.566z"/><path fill="#F5F2F3" d="M12.368 13.16c-.304-.988-.38-1.327-1.56-.395-.422.334-.676.802-.955 1.43l-.35-1.01c-.084-.24.077-.33.212-.452.795-.72.997-1.502.672-2.606-.156-.53-.35-1.107-.538-1.568-.08-.2-.156-.373-.402-.394-.28-.025-.436.286-.526.572-.137.435-.346.507-.762.28-.358-.194-.546-.283-.686-.228-.144.043-.237.23-.4.602-.166.386-.356.47-.657.31-.04-.02-.073-.03-.115-.06-.248-.17-.563-.318-.767-.127-.18.17-.132.35-.074.556.138.48.34 1.054.544 1.568.118.297.257.54.413.75.405.55.95.832 1.722.888.18.013.363-.015.445.224l.346 1.012c-.605-.322-1.094-.535-1.63-.537-.41-.002-.69.023-.883.076-.515.14-.372.496-.104 1.198.03.075.072.13.104.2.318.717.785 1.23 1.406 1.538.313.154.652.275 1.046.323.54.064 1.04.017 1.494-.137.19-.066.37-.164.548-.27.248-.147.49-.32.714-.545.892-.89 1.124-1.957.742-3.198z"/></svg>