<?xml version="1.0" encoding="utf-8"?>
<!-- Generator: Adobe Illustrator 18.0.0, SVG Export Plug-In . SVG Version: 6.00 Build 0)  -->
<!DOCTYPE svg PUBLIC "-//W3C//DTD SVG 1.1//EN" "http://www.w3.org/Graphics/SVG/1.1/DTD/svg11.dtd">
<svg version="1.1" id="Layer_1" xmlns="http://www.w3.org/2000/svg" xmlns:xlink="http://www.w3.org/1999/xlink" x="0px" y="0px"
	 viewBox="0 0 24 24" enable-background="new 0 0 24 24" xml:space="preserve">
<g>
	<path fill="#FFFFFF" d="M18.04715,17.29954l-0.25015,0.5705C17.9045,17.69279,17.98359,17.49951,18.04715,17.29954z"/>
	<path fill="#49BB99" d="M21.95588,7.36444l-3.77763-1.65602v1.45731l3.24178,1.42114
		c0.20654,0.09058,0.3009,0.33228,0.21039,0.53881l-3.58327,8.17385c-0.06356,0.19997-0.14266,0.39325-0.25015,0.5705
		l-0.19833,0.4524c-0.06249,0.19707-0.14165,0.38801-0.24795,0.56564l-0.78739,1.79615
		c-0.07871,0.17958-0.2506,0.24327-0.37394,0.24327c-0.01628,0-0.03257-0.00101-0.04879-0.00297l-1.25462-0.54999l-1.86085,0.64158
		l2.69552,1.18165c0.15528,0.04349,0.3129,0.06445,0.46875,0.06445c0.67074,0,1.30979-0.38839,1.59643-1.04215l5.06703-11.55848
		C23.23948,8.77958,22.83796,7.75113,21.95588,7.36444z"/>
	<path fill="#49BB99" d="M6.4169,3.89334c0-0.22554,0.1835-0.40903,0.40903-0.40903h2.22923l1.07327-0.37002
		c0.27774-0.09576,0.56659-0.1443,0.85853-0.1443c0.57498,0,1.11619,0.18918,1.55824,0.51432h2.99945
		c0.22554,0,0.40903,0.1835,0.40903,0.40903v0.83984v1.45737v5.73992l1.33473,3.87136v-9.0262V5.31833V3.89334
		c0-0.96306-0.7807-1.74376-1.74376-1.74376H6.82594c-0.963,0-1.74376,0.7807-1.74376,1.74376v0.96072L6.4169,4.3939V3.89334z"/>
	<path fill="#49BB99" d="M16.74885,16.96682l-0.79515-2.30637l-3.31828-9.62479c-0.24902-0.72218-0.92512-1.17585-1.64844-1.17585
		c-0.18855,0-0.38019,0.03074-0.56848,0.09569L6.4169,5.33512L5.08218,5.79528L2.17589,6.79729
		C1.26541,7.11119,0.78183,8.10373,1.09568,9.01415l4.1135,11.93122c0.24889,0.72187,0.92443,1.17382,1.64737,1.17382
		c0.10996,0,0.22093-0.01041,0.33177-0.032l4.63489-1.59795l1.86091-0.64158l2.20985-0.76189
		c0.54311-0.2773,0.88643-0.81472,0.93806-1.40125C16.85281,17.44851,16.8311,17.20542,16.74885,16.96682z M5.53521,9.51464
		c0.2042-0.19069,0.51925-0.04248,0.76631,0.12688C6.34444,9.67094,6.37814,9.68053,6.4169,9.7013
		c0.30135,0.16153,0.49103,0.07638,0.65818-0.30892c0.16166-0.37293,0.25445-0.55964,0.39887-0.60276
		c0.14032-0.05504,0.32843,0.03484,0.68564,0.22882C8.57607,9.24473,8.78481,9.17321,8.9223,8.73792
		c0.0902-0.28563,0.24693-0.59644,0.5253-0.57214C9.69416,8.1873,9.7687,8.36114,9.84881,8.55872
		c0.18672,0.46105,0.38202,1.03817,0.53825,1.56834c0.32514,1.10363,0.12265,1.88503-0.672,2.60551
		c-0.13508,0.12252-0.29623,0.21253-0.21342,0.45101c0.07758,0.22326,0.35121,1.01097,0.35121,1.01097
		c0.27913-0.62775,0.53282-1.09599,0.95429-1.42909c1.17944-0.932,1.25683-0.59323,1.56102,0.3947
		c0.38202,1.24086,0.15023,2.30788-0.74245,3.19804c-0.22453,0.2239-0.46528,0.39786-0.71379,0.54531
		c-0.17813,0.10573-0.35866,0.20344-0.54746,0.26998c-0.45442,0.1532-0.9553,0.20035-1.49581,0.13521
		c-0.39382-0.04747-0.73254-0.16829-1.04594-0.323c0.00284-0.02777-0.006-0.05485,0.00208-0.08219H7.68914
		c-0.55175-0.31239-0.97827-0.7932-1.27223-1.45459c-0.03162-0.07114-0.07505-0.12612-0.10377-0.20117
		c-0.26852-0.70205-0.41143-1.05686,0.10377-1.19718c0.19334-0.05264,0.47209-0.07764,0.88233-0.07568
		c0.53717,0.00259,1.02555,0.215,1.63222,0.53736c0,0-0.26997-0.78903-0.34648-1.01267
		c-0.08168-0.23879-0.26404-0.21039-0.44596-0.22364c-0.77306-0.05612-1.31692-0.33733-1.72211-0.88725
		c-0.15553-0.21114-0.29522-0.45379-0.41282-0.75046c-0.20376-0.51382-0.40562-1.08867-0.54266-1.56683
		C5.40271,9.86643,5.3543,9.68356,5.53521,9.51464z"/>
	<path fill="#49BB99" d="M17.59867,18.32244l-0.24795,0.56564C17.45702,18.71045,17.53618,18.51951,17.59867,18.32244z"/>
	<path fill="#F9FCFB" d="M12.36815,13.16016c-0.30419-0.98793-0.38157-1.32671-1.56102-0.3947
		c-0.42147,0.3331-0.67516,0.80134-0.95429,1.42909c0,0-0.27364-0.78771-0.35121-1.01097
		c-0.08282-0.23848,0.07833-0.32849,0.21342-0.45101c0.79465-0.72048,0.99715-1.50187,0.672-2.60551
		c-0.15623-0.53017-0.35153-1.10729-0.53825-1.56834C9.7687,8.36114,9.69416,8.1873,9.4476,8.16578
		c-0.27837-0.0243-0.4351,0.28651-0.5253,0.57214C8.78481,9.17321,8.57607,9.24473,8.15959,9.01844
		C7.80238,8.82446,7.61427,8.73458,7.47395,8.78962C7.32953,8.83273,7.23674,9.01945,7.07508,9.39238
		C6.90793,9.77768,6.71825,9.86283,6.4169,9.7013C6.37814,9.68053,6.34444,9.67094,6.30151,9.64152
		C6.05445,9.47216,5.73941,9.32395,5.53521,9.51464C5.3543,9.68356,5.40271,9.86643,5.46142,10.07138
		c0.13704,0.47815,0.3389,1.05301,0.54266,1.56683c0.1176,0.29668,0.25729,0.53932,0.41282,0.75046
		c0.40518,0.54992,0.94905,0.83113,1.72211,0.88725c0.18192,0.01326,0.36428-0.01515,0.44596,0.22364
		c0.0765,0.22364,0.34648,1.01267,0.34648,1.01267c-0.60667-0.32237-1.09505-0.53477-1.63222-0.53736
		c-0.41023-0.00196-0.68898,0.02304-0.88233,0.07568c-0.51521,0.14032-0.3723,0.49513-0.10377,1.19718
		c0.02872,0.07505,0.07215,0.13003,0.10377,0.20117c0.31833,0.71612,0.7848,1.23019,1.4058,1.53678
		c0.3134,0.15471,0.65212,0.27553,1.04594,0.323c0.54052,0.06514,1.04139,0.01799,1.49581-0.13521
		c0.1888-0.06653,0.36933-0.16425,0.54746-0.26998c0.24851-0.14745,0.48926-0.32142,0.71379-0.54531
		C12.51838,15.46804,12.75017,14.40102,12.36815,13.16016z"/>
</g>
</svg>
