<svg xmlns="http://www.w3.org/2000/svg" viewBox="0 101.3 24 24"><g fill="#49BB99"><path d="M19.7 107.3l.2.2-.2-.2zM3.3 115.9H1c.2 2.5 1.2 4.8 2.7 6.6l1.6-1.6c-1.1-1.4-1.8-3.2-2-5zM17.7 108.6l1.6-1.6c-1.8-1.6-4.1-2.6-6.6-2.7v2.3c1.9 0 3.6.8 5 2zM20.7 114.5H23c-.2-2.5-1.2-4.8-2.7-6.6l-1.6 1.6c1.1 1.4 1.8 3.1 2 5zM9 119.2l-1.6 1.6c1.1.9 2.5 1.5 4 1.7v-2.3c-1-.2-1.8-.5-2.4-1zM7 115.9H4.7c.1 1.5.7 2.9 1.7 4l1.6-1.6c-.5-.8-.9-1.6-1-2.4zM17 114.5h2.3c-.1-1.5-.7-2.9-1.7-4l-1.6 1.6c.5.7.9 1.5 1 2.4zM8 112.1l-1.6-1.6c-.9 1.1-1.5 2.5-1.7 4H7c.1-.9.5-1.7 1-2.4zM15.6 114.5c-.1-.5-.3-1-.6-1.4l-1.4 1.4h2zM11.3 111.6c-.5.1-1 .3-1.4.6l1.4 1.4v-2zM9.9 118.2c.4.3.9.5 1.4.6v-2l-1.4 1.4zM9 113.1c-.3.4-.5.9-.6 1.4h2L9 113.1zM8.4 115.9c.1.5.3 1 .6 1.4l1.4-1.4h-2zM15 117.2c.3-.4.5-.9.6-1.4h-2l1.4 1.4zM15 119.2l-.5-.5-.5-.5-1.4-1.4v5.7c1.5-.1 2.9-.7 4-1.7l-1.6-1.6zM12.7 107.9v5.7l1.4-1.4.5-.5.5-.5 1.6-1.6c-1.1-1-2.5-1.6-4-1.7z"/></g></svg>