<?xml version="1.0" encoding="utf-8"?>
<!-- Generator: Adobe Illustrator 18.0.0, SVG Export Plug-In . SVG Version: 6.00 Build 0)  -->
<!DOCTYPE svg PUBLIC "-//W3C//DTD SVG 1.1//EN" "http://www.w3.org/Graphics/SVG/1.1/DTD/svg11.dtd">
<svg version="1.1" id="Layer_1" xmlns="http://www.w3.org/2000/svg" xmlns:xlink="http://www.w3.org/1999/xlink" x="0px" y="0px"
	 viewBox="0 101.3 24 24" enable-background="new 0 101.3 24 24" xml:space="preserve">
<g>
	<path fill="#49BB99" d="M19.7,107.3l0.2,0.2C19.8,107.4,19.8,107.4,19.7,107.3z"/>
	<path fill="#49BB99" d="M3.3,115.9H1c0.2,2.5,1.2,4.8,2.7,6.6l1.6-1.6C4.2,119.5,3.5,117.7,3.3,115.9z"/>
	<path fill="#49BB99" d="M17.7,108.6l1.6-1.6c-1.8-1.6-4.1-2.6-6.6-2.7v2.3C14.6,106.6,16.3,107.4,17.7,108.6z"/>
	<path fill="#49BB99" d="M20.7,114.5H23c-0.2-2.5-1.2-4.8-2.7-6.6l-1.6,1.6C19.8,110.9,20.5,112.6,20.7,114.5z"/>
	<path fill="#49BB99" d="M9,119.2l-1.6,1.6c1.1,0.9,2.5,1.5,4,1.7v-2.3C10.4,120,9.6,119.7,9,119.2z"/>
	<path fill="#49BB99" d="M7,115.9H4.7c0.1,1.5,0.7,2.9,1.7,4l1.6-1.6C7.5,117.5,7.1,116.7,7,115.9z"/>
	<path fill="#49BB99" d="M17,114.5h2.3c-0.1-1.5-0.7-2.9-1.7-4l-1.6,1.6C16.5,112.8,16.9,113.6,17,114.5z"/>
	<path fill="#49BB99" d="M8,112.1l-1.6-1.6c-0.9,1.1-1.5,2.5-1.7,4H7C7.1,113.6,7.5,112.8,8,112.1z"/>
	<path fill="#49BB99" d="M15.6,114.5c-0.1-0.5-0.3-1-0.6-1.4l-1.4,1.4H15.6z"/>
	<path fill="#49BB99" d="M11.3,111.6c-0.5,0.1-1,0.3-1.4,0.6l1.4,1.4V111.6z"/>
	<path fill="#49BB99" d="M9.9,118.2c0.4,0.3,0.9,0.5,1.4,0.6v-2L9.9,118.2z"/>
	<path fill="#49BB99" d="M9,113.1c-0.3,0.4-0.5,0.9-0.6,1.4h2L9,113.1z"/>
	<path fill="#49BB99" d="M8.4,115.9c0.1,0.5,0.3,1,0.6,1.4l1.4-1.4H8.4z"/>
	<path fill="#49BB99" d="M15,117.2c0.3-0.4,0.5-0.9,0.6-1.4h-2L15,117.2z"/>
	<path fill="#49BB99" d="M15,119.2l-0.5-0.5l-0.5-0.5l-1.4-1.4v2v0.7v0.7v2.3c1.5-0.1,2.9-0.7,4-1.7L15,119.2z"/>
	<path fill="#49BB99" d="M12.7,107.9v2.3v0.7v0.7v2l1.4-1.4l0.5-0.5l0.5-0.5l1.6-1.6C15.6,108.6,14.2,108,12.7,107.9z"/>
</g>
</svg>
