<?xml version="1.0" encoding="UTF-8" standalone="no"?>
<svg
   xmlns:dc="http://purl.org/dc/elements/1.1/"
   xmlns:cc="http://creativecommons.org/ns#"
   xmlns:rdf="http://www.w3.org/1999/02/22-rdf-syntax-ns#"
   xmlns:svg="http://www.w3.org/2000/svg"
   xmlns="http://www.w3.org/2000/svg"
   xmlns:sodipodi="http://sodipodi.sourceforge.net/DTD/sodipodi-0.dtd"
   xmlns:inkscape="http://www.inkscape.org/namespaces/inkscape"
   viewBox="0 0 22 22"
   id="svg2"
   version="1.1"
   inkscape:version="0.48.5 r10040"
   width="100%"
   height="100%"
   sodipodi:docname="circleset.min.svg">
  <metadata
     id="metadata12">
    <rdf:RDF>
      <cc:Work
         rdf:about="">
        <dc:format>image/svg+xml</dc:format>
        <dc:type
           rdf:resource="http://purl.org/dc/dcmitype/StillImage" />
      </cc:Work>
    </rdf:RDF>
  </metadata>
  <defs
     id="defs10" />
  <sodipodi:namedview
     pagecolor="#ffffff"
     bordercolor="#666666"
     borderopacity="1"
     objecttolerance="10"
     gridtolerance="10"
     guidetolerance="10"
     inkscape:pageopacity="0"
     inkscape:pageshadow="2"
     inkscape:window-width="959"
     inkscape:window-height="569"
     id="namedview8"
     showgrid="false"
     fit-margin-top="0"
     fit-margin-left="0"
     fit-margin-right="0"
     fit-margin-bottom="0"
     inkscape:zoom="17.91577"
     inkscape:cx="20.967354"
     inkscape:cy="11.262815"
     inkscape:window-x="2051"
     inkscape:window-y="1637"
     inkscape:window-maximized="0"
     inkscape:current-layer="svg2" />
  <g
     id="g4"
     transform="translate(-1.0192991,-103.80359)"
     style="fill:#49bb99">
    <path
       d="m 19.7,107.3 0.2,0.2 -0.2,-0.2 z M 3.3,115.9 H 1 c 0.2,2.5 1.2,4.8 2.7,6.6 l 1.6,-1.6 c -1.1,-1.4 -1.8,-3.2 -2,-5 z m 14.4,-7.3 1.6,-1.6 c -1.8,-1.6 -4.1,-2.6 -6.6,-2.7 v 2.3 c 1.9,0 3.6,0.8 5,2 z m 3,5.9 H 23 c -0.2,-2.5 -1.2,-4.8 -2.7,-6.6 l -1.6,1.6 c 1.1,1.4 1.8,3.1 2,5 z M 9,119.2 7.4,120.8 c 1.1,0.9 2.5,1.5 4,1.7 v -2.3 c -1,-0.2 -1.8,-0.5 -2.4,-1 z M 7,115.9 H 4.7 c 0.1,1.5 0.7,2.9 1.7,4 L 8,118.3 c -0.5,-0.8 -0.9,-1.6 -1,-2.4 z m 10,-1.4 h 2.3 c -0.1,-1.5 -0.7,-2.9 -1.7,-4 l -1.6,1.6 c 0.5,0.7 0.9,1.5 1,2.4 z m -9,-2.4 -1.6,-1.6 c -0.9,1.1 -1.5,2.5 -1.7,4 H 7 c 0.1,-0.9 0.5,-1.7 1,-2.4 z m 7.6,2.4 c -0.1,-0.5 -0.3,-1 -0.6,-1.4 l -1.4,1.4 h 2 z m -4.3,-2.9 c -0.5,0.1 -1,0.3 -1.4,0.6 l 1.4,1.4 v -2 z m -1.4,6.6 c 0.4,0.3 0.9,0.5 1.4,0.6 v -2 l -1.4,1.4 z M 9,113.1 c -0.3,0.4 -0.5,0.9 -0.6,1.4 h 2 L 9,113.1 z m -0.6,2.8 c 0.1,0.5 0.3,1 0.6,1.4 l 1.4,-1.4 h -2 z m 6.6,1.3 c 0.3,-0.4 0.5,-0.9 0.6,-1.4 h -2 l 1.4,1.4 z m 0,2 -0.5,-0.5 -0.5,-0.5 -1.4,-1.4 v 5.7 c 1.5,-0.1 2.9,-0.7 4,-1.7 L 15,119.2 z m -2.3,-11.3 v 5.7 l 1.4,-1.4 0.5,-0.5 0.5,-0.5 1.6,-1.6 c -1.1,-1 -2.5,-1.6 -4,-1.7 z"
       id="path6"
       inkscape:connector-curvature="0" />
  </g>
</svg>
