<?xml version="1.0" encoding="utf-8"?>
<!-- Generator: Adobe Illustrator 18.0.0, SVG Export Plug-In . SVG Version: 6.00 Build 0)  -->
<!DOCTYPE svg PUBLIC "-//W3C//DTD SVG 1.1//EN" "http://www.w3.org/Graphics/SVG/1.1/DTD/svg11.dtd">
<svg version="1.1" id="Layer_1" xmlns="http://www.w3.org/2000/svg" xmlns:xlink="http://www.w3.org/1999/xlink" x="0px" y="0px"
	 viewBox="0 67 24 24" enable-background="new 0 67 24 24" xml:space="preserve">
<g>
	<path fill="#49BB99" d="M2.1,88.7h19.8c0.1,0,0.1,0,0.2,0H1.9C2,88.7,2.1,88.7,2.1,88.7z"/>
	<path fill="#49BB99" d="M22.8,87L21,83.8H3L1.2,87c-0.4,0.7,0,1.5,0.8,1.7h20.1C22.8,88.5,23.2,87.7,22.8,87z"/>
	<polygon fill="#49BB99" points="4.1,81.9 19.9,81.9 17.2,77.2 6.8,77.2 	"/>
	<path fill="#49BB99" d="M11,69.9l-3.1,5.4h8.2L13,69.9c-0.2-0.3-0.4-0.4-0.6-0.5h-0.7C11.4,69.5,11.2,69.6,11,69.9z"/>
	<path fill="#49BB99" d="M11.7,69.4h0.7C12.1,69.3,11.9,69.3,11.7,69.4z"/>
</g>
</svg>
