<svg xmlns="http://www.w3.org/2000/svg" viewBox="0 33.7 24 24"><g fill="#49BB99"><path d="M17.2 37.5h-.9v.1c0 1.2-1 2.3-2.1 2.3H9.8c-1.2 0-2.1-1-2.1-2.3v-.1h-.9c-1.1 0-2.1.9-2.1 2.1v15c0 1 .8 1.9 1.8 2.1h11c1-.1 1.8-1 1.8-2.1v-15c0-1.1-1-2.1-2.1-2.1zm.3 17.1h-11V42h11v12.6z"/><path d="M15.3 48.4L11.8 52l-1.4-1.4c-.1-.1-.4-.1-.5 0l-.3.3c-.1.1-.1.4 0 .5l1.9 1.9c.1.1.4.1.5 0l4.1-4.1c.1-.1.1-.4 0-.5l-.3-.3c-.1-.1-.4-.1-.5 0zM8.4 44.7h7.3c.2 0 .4-.2.4-.4v-.4c0-.2-.2-.4-.4-.4H8.4c-.2 0-.4.2-.4.4v.4c0 .2.2.4.4.4zM8.4 46.3H13c.2 0 .4-.2.4-.4v-.4c0-.2-.2-.4-.4-.4H8.4c-.2 0-.4.2-.4.4v.5c0 .2.2.3.4.3zM8.4 48H13c.2 0 .4-.2.4-.4v-.4c0-.2-.2-.4-.4-.4H8.4c-.2 0-.4.2-.4.4v.4c0 .2.2.4.4.4zM14.2 36.3h-.8v-.4c0-.7-.5-1.2-1.1-1.2h-.7c-.6 0-1.1.5-1.1 1.2v.4h-.7c-.6 0-1.1.5-1.1 1.2v.1c0 .7.5 1.2 1.1 1.2h4.3c.6 0 1.1-.5 1.1-1.2v-.1c0-.7-.5-1.2-1-1.2zm-2.2-.8c.3 0 .5.2.5.5s-.2.5-.5.5-.5-.2-.5-.5.2-.5.5-.5z"/></g></svg>